Motion_pu03
version=1
nRows=9
nColumns=43
inDegrees=yes
endheader
time	pelvis_tilt	pelvis_list	pelvis_rotation	pelvis_tx	pelvis_ty	pelvis_tz	hip_flexion_r	hip_adduction_r	hip_rotation_r	knee_angle_r	ankle_angle_r	subtalar_angle_r	mtp_angle_r	hip_flexion_l	hip_adduction_l	hip_rotation_l	knee_angle_l	ankle_angle_l	subtalar_angle_l	mtp_angle_l	lumbar_extension	lumbar_bending	lumbar_rotation	neck_flexion	neck_lateral_bending	neck_rotation	arm_flex_r	arm_add_r	arm_rot_r	elbow_flex_r	pro_sup_r	wrist_flex_r	wrist_dev_r	hand_finger_flex_r	arm_flex_l	arm_add_l	arm_rot_l	elbow_flex_l	pro_sup_l	wrist_flex_l	wrist_dev_l	hand_finger_flex_l
      3.45500000	     -0.26147304	     10.86415046	    -97.25513342	      0.01254016	      0.94965662	      0.67612358	      7.96425376	     -4.08049566	     -6.14277349	    -12.48754197	      4.15085489	     13.20502370	     17.97362618	      3.62537205	     -1.72154511	    -16.56591209	    -10.94497627	      4.06259949	      9.18554419	     20.11836632	     -1.32169045	     -0.04801722	      1.72240507	     45.12068395	      2.78783306	     11.91717267	    150.06471225	    -14.57254779	     61.52358882	     34.63636061	    120.46051382	      5.22158768	      3.64969524	     -1.95919388	    160.93314691	    -23.69732257	     86.28532301	     38.85361355	     90.50425839	     12.08680231	      8.78221469	     33.53069182
      3.45750000	     -0.25710900	     10.88351330	    -97.25037271	      0.01243424	      0.94952628	      0.67690573	      7.92933864	     -4.08047642	     -6.13504843	    -12.50731839	      4.14685743	     13.20692085	     17.97386568	      3.59995281	     -1.72498597	    -16.56833689	    -10.96237108	      4.06270742	      9.18254102	     20.11895086	     -1.28011866	     -0.05047310	      1.72720284	     45.11186331	      2.78462563	     11.91686134	    150.11846913	    -14.60616651	     61.50189384	     34.63247421	    120.45896238	      5.21450352	      3.64867983	     -1.95484603	    160.93688430	    -23.74055106	     86.29949869	     38.83946322	     90.51179971	     12.09844653	      8.78316044	     33.54014983
      3.46000000	     -0.25721307	     10.88908616	    -97.24993760	      0.01242975	      0.94957195	      0.67717865	      7.92836648	     -4.08084792	     -6.13452584	    -12.50793748	      4.14673256	     13.20700663	     17.97389450	      3.59981630	     -1.72506413	    -16.56842978	    -10.96309376	      4.06277573	      9.18238408	     20.11900743	     -1.28375525	     -0.05095451	      1.72817464	     45.11059322	      2.78422620	     11.91690160	    150.12020015	    -14.60808750	     61.50082129	     34.63241744	    120.45881939	      5.21426597	      3.64840991	     -1.95437560	    160.93673338	    -23.74314345	     86.30094010	     38.83917072	     90.51245228	     12.09944051	      8.78316413	     33.54095850
      3.46250000	     -0.25581558	     10.81950229	    -97.36139970	      0.01219761	      0.94961209	      0.67780076	      7.83566715	     -4.07872834	     -6.01765588	    -12.52509363	      4.14557570	     13.23057883	     17.98804159	      3.55457741	     -1.74892306	    -16.58648993	    -11.15368429	      4.10576660	      9.13723959	     20.14580183	     -1.38026389	     -0.04208369	      1.86778090	     44.71740836	      2.53667197	     11.95272553	    150.18150673	    -14.72950662	     61.32078771	     34.83078433	    120.40681675	      5.27908724	      3.47062651	     -1.70348955	    161.18773086	    -23.91204235	     86.71940598	     39.16279045	     90.73290870	     12.45553590	      8.71547643	     33.86924211
      3.46500000	     -0.25424807	     10.83430482	    -97.35726288	      0.01222112	      0.94955335	      0.67840127	      7.81192185	     -4.08268028	     -6.01021241	    -12.53744024	      4.14329365	     13.23110906	     17.98846796	      3.53636105	     -1.74136906	    -16.59183982	    -11.15967490	      4.10632866	      9.13494127	     20.14678121	     -1.35053105	     -0.03222532	      1.86792973	     44.72146039	      2.54048882	     11.95408598	    150.20245051	    -14.73596562	     61.30639141	     34.82045030	    120.40818169	      5.28117469	      3.47038785	     -1.69265276	    161.19423113	    -23.93685797	     86.73451620	     39.14550091	     90.74344313	     12.46216088	      8.71590912	     33.88029915
      3.46750000	     -0.25387745	     10.83951349	    -97.35760217	      0.01222423	      0.94960128	      0.67866636	      7.81121113	     -4.08308078	     -6.00976619	    -12.53788719	      4.14321777	     13.23111461	     17.98849798	      3.53627826	     -1.74152893	    -16.59206607	    -11.15970904	      4.10637376	      9.13481568	     20.14684772	     -1.35381897	     -0.03234917	      1.86765429	     44.72101182	      2.54060950	     11.95422723	    150.20341876	    -14.73713958	     61.30552570	     34.81949466	    120.40830459	      5.28149962	      3.47040242	     -1.69185233	    161.19409133	    -23.93888602	     86.73586009	     39.14468766	     90.74418474	     12.46260159	      8.71595394	     33.88104103
      3.47000000	     -0.25073728	     10.85862662	    -97.36000341	      0.01221484	      0.94947682	      0.67941713	      7.78073942	     -4.09106340	     -6.00301204	    -12.55354345	      4.14099244	     13.23104619	     17.98891413	      3.51097015	     -1.73984104	    -16.59468686	    -11.17328807	      4.10480805	      9.13342092	     20.14786378	     -1.31413916	     -0.02719079	      1.86517000	     44.70984101	      2.54268988	     11.95673314	    150.24342471	    -14.76440827	     61.28561468	     34.80721769	    120.41021572	      5.28702985	      3.47088927	     -1.67853608	    161.21714518	    -23.97762424	     86.75098057	     39.13387836	     90.75605342	     12.46816601	      8.71728956	     33.89275194
      3.47250000	     -0.24991838	     10.86400179	    -97.36064775	      0.01221444	      0.94953134	      0.67968469	      7.77997065	     -4.09139355	     -6.00256048	    -12.55402243	      4.14096853	     13.23104036	     17.98895425	      3.51075338	     -1.74000749	    -16.59480856	    -11.17359347	      4.10475778	      9.13336504	     20.14794613	     -1.31748896	     -0.02732897	      1.86463854	     44.70848169	      2.54279924	     11.95691880	    150.24512607	    -14.76562952	     61.28460012	     34.80668388	    120.41034089	      5.28774490	      3.47078655	     -1.67742616	    161.21778146	    -23.97967808	     86.75241171	     39.13376032	     90.75690446	     12.46858787	      8.71731248	     33.89361606
      3.47500000	     -0.06148774	     10.70236906	    -97.61269515	      0.01149366	      0.94973108	      0.68047756	      7.58464398	     -4.24210373	     -5.50383249	    -12.48606525	      4.19005900	     13.01331880	     18.19683253	      3.22758431	     -1.56099716	    -17.01991956	    -11.07594281	      3.94545823	      9.31461258	     20.71433908	     -1.50087161	     -0.28294999	      1.68419509	     44.62445348	      2.97738432	     12.24240241	    149.74207690	    -14.57803342	     58.90744274	     35.03032306	    122.51173156	      5.40165700	      3.00388436	      2.82150225	    162.15380308	    -24.08456851	     88.72102270	     39.09235238	     91.56291660	     11.98624773	      6.76296726	     37.83735569
